<svg xmlns="http://www.w3.org/2000/svg" width="880" height="280" viewBox="0 0 880 280" role="img" aria-label="Dys. Software developer. Owner of DysektAI, core maintainer of TarkovTracker, maintainer of RatScanner.">
<title>Dys. Software developer. Owner of DysektAI, core maintainer of TarkovTracker, maintainer of RatScanner.</title>
<defs><clipPath id="clip"><rect x="0.5" y="0.5" width="879" height="279" rx="12" /></clipPath><radialGradient id="glow" cx="0.5" cy="0.5" r="0.5"><stop offset="0" stop-color="#ff4d4f" stop-opacity="0.16" /><stop offset="1" stop-color="#ff4d4f" stop-opacity="0" /></radialGradient></defs>
<rect x="0.5" y="0.5" width="879" height="279" rx="12" fill="#0d1117" stroke="#30363d" />
<g clip-path="url(#clip)"><g stroke="#ffffff" stroke-opacity="0.035" stroke-width="1"><path d="M24 0V280" /><path d="M48 0V280" /><path d="M72 0V280" /><path d="M96 0V280" /><path d="M120 0V280" /><path d="M144 0V280" /><path d="M168 0V280" /><path d="M192 0V280" /><path d="M216 0V280" /><path d="M240 0V280" /><path d="M264 0V280" /><path d="M288 0V280" /><path d="M312 0V280" /><path d="M336 0V280" /><path d="M360 0V280" /><path d="M384 0V280" /><path d="M408 0V280" /><path d="M432 0V280" /><path d="M456 0V280" /><path d="M480 0V280" /><path d="M504 0V280" /><path d="M528 0V280" /><path d="M552 0V280" /><path d="M576 0V280" /><path d="M600 0V280" /><path d="M624 0V280" /><path d="M648 0V280" /><path d="M672 0V280" /><path d="M696 0V280" /><path d="M720 0V280" /><path d="M744 0V280" /><path d="M768 0V280" /><path d="M792 0V280" /><path d="M816 0V280" /><path d="M840 0V280" /><path d="M864 0V280" /><path d="M0 24H880" /><path d="M0 48H880" /><path d="M0 72H880" /><path d="M0 96H880" /><path d="M0 120H880" /><path d="M0 144H880" /><path d="M0 168H880" /><path d="M0 192H880" /><path d="M0 216H880" /><path d="M0 240H880" /><path d="M0 264H880" /></g></g>
<circle cx="728" cy="140" r="120" fill="url(#glow)" />
<g fill="none" stroke="#ff4d4f"><circle cx="728" cy="140" r="92" stroke-opacity="0.55" stroke-width="1.5" /><circle cx="728" cy="140" r="64" stroke-opacity="0.25" /><circle cx="728" cy="140" r="30" stroke-opacity="0.35" stroke-dasharray="3 5" /><path d="M610 140H656 M800 140H846 M728 22V68 M728 212V258" stroke-opacity="0.6" /></g>
<path d="M728 42L734 48L728 54L722 48Z" fill="#0d1117" stroke="#ff4d4f" stroke-width="1.25" />
<path d="M728 226L734 232L728 238L722 232Z" fill="#0d1117" stroke="#ff4d4f" stroke-width="1.25" />
<path d="M636 134L642 140L636 146L630 140Z" fill="#0d1117" stroke="#ff4d4f" stroke-width="1.25" />
<path d="M820 134L826 140L820 146L814 140Z" fill="#0d1117" stroke="#ff4d4f" stroke-width="1.25" />
<circle cx="728" cy="140" r="4" fill="#ff4d4f" />
<circle cx="728" cy="140" r="9" fill="none" stroke="#ff4d4f" stroke-opacity="0.5" />
<text x="48.0" y="62.0" font-family="-apple-system, BlinkMacSystemFont, 'Segoe UI', 'Noto Sans', Helvetica, Arial, sans-serif" font-size="12" font-weight="600" fill="#ff4d4f" letter-spacing="3.5">DYSEKTAI</text>
<path d="M152.7 58H170.7" stroke="#6e7681" />
<text x="180.7" y="62.0" font-family="-apple-system, BlinkMacSystemFont, 'Segoe UI', 'Noto Sans', Helvetica, Arial, sans-serif" font-size="12" font-weight="500" fill="#6e7681" letter-spacing="3.5">FLORIDA, US</text>
<text x="45.0" y="128.0" font-family="-apple-system, BlinkMacSystemFont, 'Segoe UI', 'Noto Sans', Helvetica, Arial, sans-serif" font-size="60" font-weight="700" fill="#f0f6fc" letter-spacing="-1">Dys</text>
<text x="48.0" y="164.0" font-family="-apple-system, BlinkMacSystemFont, 'Segoe UI', 'Noto Sans', Helvetica, Arial, sans-serif" font-size="16" font-weight="400" fill="#9198a1">Software developer building open-source tools for the</text>
<text x="48.0" y="188.0" font-family="-apple-system, BlinkMacSystemFont, 'Segoe UI', 'Noto Sans', Helvetica, Arial, sans-serif" font-size="16" font-weight="400" fill="#9198a1">Escape from Tarkov community and developer tooling for AI coding agents.</text>
<rect x="48" y="212" width="144.5" height="30" rx="15" fill="#151b23" stroke="#30363d" />
<circle cx="65" cy="227.0" r="3" fill="#ff4d4f" />
<text x="78.0" y="231.5" font-family="-apple-system, BlinkMacSystemFont, 'Segoe UI', 'Noto Sans', Helvetica, Arial, sans-serif" font-size="12.5" font-weight="400" fill="#9198a1">Owner</text>
<text x="122.3" y="231.5" font-family="-apple-system, BlinkMacSystemFont, 'Segoe UI', 'Noto Sans', Helvetica, Arial, sans-serif" font-size="12.5" font-weight="600" fill="#d1d7e0">DysektAI</text>
<rect x="202.45904000000002" y="212" width="233.0" height="30" rx="15" fill="#151b23" stroke="#30363d" />
<circle cx="219.45904000000002" cy="227.0" r="3" fill="#ff4d4f" />
<text x="232.5" y="231.5" font-family="-apple-system, BlinkMacSystemFont, 'Segoe UI', 'Noto Sans', Helvetica, Arial, sans-serif" font-size="12.5" font-weight="400" fill="#9198a1">Core maintainer</text>
<text x="330.9" y="231.5" font-family="-apple-system, BlinkMacSystemFont, 'Segoe UI', 'Noto Sans', Helvetica, Arial, sans-serif" font-size="12.5" font-weight="600" fill="#d1d7e0">TarkovTracker</text>
<rect x="445.41584" y="212" width="184.8" height="30" rx="15" fill="#151b23" stroke="#30363d" />
<circle cx="462.41584" cy="227.0" r="3" fill="#ff4d4f" />
<text x="475.4" y="231.5" font-family="-apple-system, BlinkMacSystemFont, 'Segoe UI', 'Noto Sans', Helvetica, Arial, sans-serif" font-size="12.5" font-weight="400" fill="#9198a1">Maintainer</text>
<text x="542.1" y="231.5" font-family="-apple-system, BlinkMacSystemFont, 'Segoe UI', 'Noto Sans', Helvetica, Arial, sans-serif" font-size="12.5" font-weight="600" fill="#d1d7e0">RatScanner</text>
</svg>
